<?xml version="1.0" encoding="utf-8"?>
<!-- Generator: Adobe Illustrator 19.2.0, SVG Export Plug-In . SVG Version: 6.00 Build 0)  -->
<svg version="1.1" id="Layer_1" xmlns="http://www.w3.org/2000/svg" xmlns:xlink="http://www.w3.org/1999/xlink" x="0px" y="0px"
	 viewBox="0 0 907 193" style="enable-background:new 0 0 907 193;" xml:space="preserve">
<style type="text/css">
	.st0{fill:#4DAAE0;}
	.st1{fill:#090d20;}
</style>
<g>
	<g>
		<path class="st0" d="M299.3,149.4c-8.1,0-15.2-1.7-21.5-5c-6.3-3.3-11.5-7.7-15.8-13.2c-4.3-5.5-7.6-11.8-9.9-18.9
			c-2.3-7.1-3.4-14.4-3.4-22c0-6.4,0.9-12.8,2.7-19.3c1.8-6.5,4.5-12.8,7.9-18.9c3.4-6.1,7.6-11.7,12.5-17
			c4.9-5.3,10.4-9.9,16.4-13.8c6.1-3.9,12.6-7,19.6-9.3c7-2.3,14.5-3.4,22.3-3.4c12.2,0,22.2,2.8,30,8.4
			c7.7,5.6,12.8,12.9,15.1,21.9l-23.6,14.3c-0.8-3.9-2.1-7.2-3.9-9.9c-1.8-2.7-4-4.8-6.5-6.3c-2.5-1.6-5.3-2.7-8.2-3.4
			c-2.9-0.7-5.8-1.1-8.7-1.1c-7.3,0-13.9,1.8-19.9,5.3c-6,3.5-11.1,8-15.2,13.5c-4.2,5.5-7.4,11.5-9.7,18.2
			c-2.3,6.6-3.4,13.1-3.4,19.3c0,5,0.6,9.6,2,14.1c1.3,4.4,3.2,8.3,5.7,11.7c2.5,3.4,5.5,6.1,9.1,8c3.6,2,7.7,2.9,12.4,2.9
			c2.9,0,6-0.4,9.3-1.2c3.3-0.8,6.6-2,9.8-3.7c3.2-1.7,6.3-3.9,9.2-6.5c2.9-2.7,5.6-5.9,7.9-9.7l19.3,12.7
			c-3.1,5.2-7.1,9.8-11.8,13.8c-4.8,4-9.9,7.3-15.4,10.1c-5.5,2.7-11.3,4.8-17.2,6.3C310.3,148.7,304.6,149.4,299.3,149.4z"/>
		<path class="st0" d="M393.4,149.4h-27.9L387.8,0.6h27.9L393.4,149.4z"/>
		<path class="st0" d="M410.1,96.8c2.4-16,8.5-28.7,18.5-38.3c10-9.5,22.6-14.3,37.9-14.3c14.7,0,25.8,5,33.2,14.9s10,22.5,7.8,37.7
			l-0.3,2c-2.5,16.1-8.7,28.9-18.6,38.3c-9.9,9.5-22.6,14.2-38,14.2c-14.7,0-25.8-4.9-33.2-14.8c-7.4-9.9-10-22.5-7.6-37.7
			L410.1,96.8z M437.6,98.8c-1.5,9.7-1,17.4,1.4,22.9c2.5,5.5,7.4,8.3,14.8,8.3c6.9,0,12.5-2.9,16.9-8.7c4.4-5.8,7.3-13.3,8.7-22.5
			l0.3-2c1.3-9.5,0.8-17-1.7-22.7c-2.4-5.6-7.3-8.4-14.6-8.4c-6.9,0-12.6,2.9-17,8.8c-4.4,5.9-7.2,13.3-8.5,22.3L437.6,98.8z"/>
		<path class="st0" d="M572.5,136.6c-4.9,5.1-8.6,7.7-13.9,10.5c-5.3,2.9-11.3,4.3-17.8,4.3c-10.5,0-18.3-3.7-23.6-11.2
			c-5.2-7.4-6.7-18.9-4.4-34.2l9-59.8h27.8l-9,60c-1.4,9.3-1.1,15.6,0.8,18.8c1.9,3.2,5.5,4.8,10.7,4.8c4.3,0,8.2-0.8,11.7-2.3
			c3.5-1.5,6.4-3.7,8.9-6.6l11.2-74.7h27.9l-15.5,103.2l-25.1-0.7L572.5,136.6z"/>
		<path class="st0" d="M610.8,98.6c2.5-16.9,7.9-30.1,16.4-39.8c8.4-9.7,19.1-14.5,32-14.5c5,0,9.4,1.2,13.2,3.5
			c3.8,2.3,7,5.6,9.6,10l8.6-57.1h27.9l-22.3,148.8h-25.4l1.2-12.7c-3.9,4.8-8.3,8.4-13.2,10.9c-4.8,2.5-10.1,3.8-15.8,3.8
			c-12.1,0-21.2-4.7-27-14.1c-5.9-9.4-7.7-21.6-5.4-36.6L610.8,98.6z M638.3,100.6c-1.5,9.3-1,16.5,1.2,21.6c2.3,5,6.9,7.5,13.8,7.5
			c3.9,0,7.6-0.8,10.8-2.5c3.3-1.7,6.1-4.1,8.4-7.3l6.6-43.7c-1.4-3.2-3.5-5.8-6.2-7.6c-2.7-1.8-6-2.7-10-2.7
			c-6.5,0-11.8,3.1-16.1,9.2c-4.2,6.1-7,14-8.4,23.5L638.3,100.6z"/>
		<g>
			<polygon class="st1" points="759.6,2.2 731.7,2.2 728.6,23.2 756.5,23.2 			"/>
			<path class="st1" d="M877,49.2l-29.7,65.1l-0.6-0.4l-0.2-5.2l-8.5-59.5h-18.9h-4.3h-6.8h-13l1.7-12c0.7-4.6,2.4-8.4,5.2-10.9
				c2.8-2.5,6.4-3.9,10.7-3.9c1.9,0,3.6,0,5,0.2c1.4,0.2,2.8,0.4,4.3,0.6l5.5-20.7c-2.7-0.6-5.4-1.1-7.9-1.4
				c-2.5-0.4-4.9-0.6-7.1-0.6c-12.3,0-22.2,3-29.7,9.1c-7.5,6-12.1,15.6-13.9,27.6l-1.7,12h-14.5h-0.8h-16.4h-10.6l-15.5,102h27.9
				l12.3-81h14.5l-12.3,81h27.9l12.3-81h20.5l16.8,81.5l-4.4,7.7c-1.8,3.2-4.2,5.9-7.2,8.2c-2.9,2.3-6.6,3.4-11,3.4
				c-0.8,0-1.6-0.1-2.6-0.2c-1-0.1-1.8-0.3-2.6-0.4l-6.3,20.3c2.7,0.7,5.1,1.2,7.1,1.6c2,0.4,4.1,0.6,6.3,0.6c10,0,18-2.5,23.8-7.6
				s10.7-10.7,14.7-18.1L907,49.2H877z"/>
		</g>
	</g>
	<g>
		<path class="st0" d="M179.3,25.1C170.1,9.7,152.7,0,134,0c-9.3,0-18.3,2.3-26.2,6.7c-7.6-3.3-16-5.1-24.4-5.1
			c-24.2,0-46.2,14.7-55.9,36.8C10.5,48.4,0,66.5,0,86.4C0,117.1,24.9,142,55.6,142c2.2,0,4.4-0.1,6.5-0.4
			c8.5,4.9,18.1,7.5,27.9,7.5c8.7,0,17.3-2.1,25-6c7.5,3.9,15.8,6,24.2,6c0.5,0,1,0,1.5,0c13.7-0.4,26.7-6.2,36.1-16
			c27.2-3.2,48.1-26.4,48.1-54.2C225.2,52.1,205.4,29.3,179.3,25.1z M173.3,125.7c-8.2,9.6-19.9,15.3-32.7,15.7c-0.4,0-0.9,0-1.3,0
			c-8.6,0-17-2.5-24.2-7.1c-7.5,4.6-16.2,7.1-25.1,7.1c-9.5,0-18.5-2.7-26.3-7.9c-2.7,0.5-5.5,0.7-8.2,0.7
			c-26.4,0-47.8-21.5-47.8-47.8c0-18,10-34.3,25.9-42.5C41.4,23.5,61.4,9.4,83.4,9.4c8.8,0,17.2,2.1,24.9,6.2
			c7.5-5.1,16.4-7.8,25.7-7.8c17.6,0,33.2,9.7,40.4,24.5c24.1,1.9,43.1,22.1,43.1,46.6C217.4,103.9,197.9,124.3,173.3,125.7z"/>
		<path class="st0" d="M170.6,40c-0.5,0-1,0-1.6,0c-4.6-14.1-18.6-24.4-35.1-24.4c-9.8,0-18.6,3.6-25.2,9.4
			c-7.4-5-16.1-7.8-25.4-7.8c-20.2,0-37.7,13.6-43.4,32.3c-14.3,6.1-24.4,20.3-24.4,36.9c0,22.1,17.9,40,40,40c3.4,0,6.8-0.4,10-1.2
			c6.8,5.3,15.3,8.4,24.5,8.4c9.6,0,18.4-3.4,25.3-9c6.7,5.8,15.1,9,24,9c0.4,0,0.7,0,1.1,0c11.4-0.3,21.8-5.8,28.6-15l0.4-0.6
			l1.1,0c21.5,0,39-17.5,39-39C209.6,57.5,192.1,40,170.6,40z M138.5,100.7c0,3.5-10.7,6.5-25,6.5c-14.3,0-25-3-25-6.5V87.6
			c0,3.5,10.7,6.5,25,6.5c14.3,0,25-3.1,25-6.5V100.7z M138.5,83.3c0,3.5-10.7,6.5-25,6.5c-14.3,0-25-3.1-25-6.5V70.2
			c0,3.5,10.7,6.5,25,6.5c14.3,0,25-3,25-6.5V83.3z M138.5,65.9c0,3.5-10.7,6.5-25,6.5c-14.3,0-25-3.1-25-6.5v-13
			c0,3.5,10.7,6.5,25,6.5c14.3,0,25-3,25-6.5V65.9z M112.6,55c-14.4,0-26.1-2.9-26.1-6.5c0-3.6,11.7-6.5,26.1-6.5
			c14.4,0,26.1,2.9,26.1,6.5C138.7,52.1,127,55,112.6,55z"/>
	</g>
</g>
</svg>
