<?xml version="1.0" encoding="utf-8"?>
<!-- Generator: Adobe Illustrator 19.0.0, SVG Export Plug-In . SVG Version: 6.00 Build 0)  -->
<svg version="1.1" id="Layer_1" xmlns="http://www.w3.org/2000/svg" xmlns:xlink="http://www.w3.org/1999/xlink" x="0px" y="0px"
	 viewBox="0 0 345 68.2" style="enable-background:new 0 0 345 68.2;" xml:space="preserve">
<style type="text/css">
	.st0{fill:url(#SVGID_1_);}
	.st1{fill:url(#SVGID_2_);}
	.st2{fill:url(#SVGID_3_);}
	.st3{fill:#443088;}
</style>
<g>
	<g>
		<linearGradient id="SVGID_1_" gradientUnits="userSpaceOnUse" x1="3.3924" y1="61.0301" x2="15.1649" y2="67.8269">
			<stop  offset="0" style="stop-color:#009EE2"/>
			<stop  offset="0.8" style="stop-color:#443088"/>
		</linearGradient>
		<path class="st0" d="M12.8,68.2H5.8c-2.1,0-3.7-1.7-3.7-3.7v0c0-2.1,1.7-3.7,3.7-3.7h7.1c2.1,0,3.7,1.7,3.7,3.7v0
			C16.5,66.5,14.9,68.2,12.8,68.2z"/>
		<linearGradient id="SVGID_2_" gradientUnits="userSpaceOnUse" x1="1.3823" y1="15.9614" x2="13.1549" y2="22.7583">
			<stop  offset="0" style="stop-color:#009EE2"/>
			<stop  offset="0.8" style="stop-color:#443088"/>
		</linearGradient>
		<path class="st1" d="M10.8,23.1H3.7c-2.1,0-3.7-1.7-3.7-3.7v0c0-2.1,1.7-3.7,3.7-3.7h7.1c2.1,0,3.7,1.7,3.7,3.7v0
			C14.5,21.4,12.9,23.1,10.8,23.1z"/>
		<linearGradient id="SVGID_3_" gradientUnits="userSpaceOnUse" x1="14.6349" y1="15.8529" x2="96.2544" y2="62.9759">
			<stop  offset="0" style="stop-color:#009EE2"/>
			<stop  offset="0.8" style="stop-color:#443088"/>
		</linearGradient>
		<path class="st2" d="M81.6,42.7c0-10,4.9-20,14.5-25c-1.8-1.5-3.9-2.1-7.8-2.1H71.4V10c0-2.1-1.8-3.9-4.1-3.9H50
			c-2.3,0-4.1,1.7-4.1,3.9v5.6l-21.1,0c-2.1,0-3.7,1.7-3.7,3.7c0,2.1,1.7,3.7,3.7,3.7l7.2,0c2.1,0,3.7,1.7,3.7,3.7s-1.7,3.7-3.7,3.7
			l-23.7,0c-2.1,0-3.7,1.7-3.7,3.7c0,2.1,1.7,3.7,3.7,3.7l14.7,0c2.1,0,3.7,1.7,3.7,3.7c0,2.1-1.7,3.7-3.7,3.7l-7.2,0
			c-2.1,0-3.7,1.7-3.7,3.7s1.7,3.7,3.7,3.7l21.4,0c2.1,0,3.7,1.7,3.7,3.7c0,2.1-1.7,3.7-3.7,3.7l-9.4,0c-2.1,0-3.7,1.7-3.7,3.7
			c0,2.1,1.7,3.7,3.7,3.7h60.5c2.2,0,4.2-0.6,5.9-1.5C85.8,61.4,81.6,52,81.6,42.7z M66,15.6H51.3v-3.5c0-1.4,1.2-2.6,2.7-2.6h9.2
			c1.5,0,2.7,1.2,2.7,2.6V15.6z"/>
	</g>
	<g>
		<path class="st3" d="M126.8,59.4c0,1.4-0.7,2.5-1.8,3.2c-3.1,2-7.7,4.4-15,4.4c-13,0-24.5-9-24.5-24.3S97,18.4,110,18.4
			c7.3,0,11.8,2.4,15,4.4c1.1,0.7,1.8,1.8,1.8,3.2c0,1.7-1.6,3.7-3.5,3.7c-0.7,0-1.2-0.1-2-0.6c-3.2-1.7-5.8-2.9-10.6-2.9
			c-10.7,0-16.9,6.7-16.9,16.5s6.2,16.5,16.9,16.5c4.8,0,7.3-1.3,10.6-2.9c0.8-0.5,1.3-0.6,2-0.6C125.3,55.7,126.8,57.7,126.8,59.4z
			"/>
		<path class="st3" d="M170,36.5v26c0,2.3-1.9,4.1-4.2,4.1c-2.3,0-4.1-1.8-4.1-4.1v-2.4c-3.3,3.4-8.6,7-17.3,7c-8,0-15-5.1-15-13.8
			s6.8-14.9,21.1-14.9h11.1v-0.7c0-8.2-4-11.4-12.3-11.4c-5.1,0-8.8,1.1-12.2,2.2c-0.4,0.1-0.8,0.2-1.2,0.2c-1.8,0-3.4-1.5-3.4-3.5
			c0-1.6,0.8-2.8,2.4-3.5c4.3-1.8,9.4-3.3,15.9-3.3C164.2,18.4,170,27.5,170,36.5z M161.6,52.8v-7.7h-10c-8.6,0-13.9,2-13.9,7.3
			c0,3.9,2.3,7.3,9.7,7.3C153.2,59.7,158.5,56.4,161.6,52.8z"/>
		<path class="st3" d="M206.8,22.5c0,2.4-1.8,3.9-4.2,3.9h-0.5c-6.1,0-11,3.3-14.2,8.1v27.9c0,2.3-1.9,4.1-4.2,4.1
			c-2.3,0-4.1-1.8-4.1-4.1V23c0-2.3,1.8-4.2,4.1-4.2c2.3,0,4.2,1.9,4.2,4.2V27c3.3-4.4,8.1-8.6,14.4-8.6h0.5
			C205,18.4,206.8,20.2,206.8,22.5z"/>
		<path class="st3" d="M220,5.1c0,2.6-2.1,4.7-4.7,4.7h-0.6c-2.6,0-4.7-2.1-4.7-4.7V4.7c0-2.6,2.1-4.7,4.7-4.7h0.6
			c2.6,0,4.7,2.1,4.7,4.7V5.1z M219.2,23v39.4c0,2.3-1.8,4.1-4.2,4.1c-2.3,0-4.1-1.8-4.1-4.1V23c0-2.4,1.8-4.2,4.1-4.2
			C217.4,18.8,219.2,20.7,219.2,23z"/>
		<path class="st3" d="M269,59.6c0,1.5-1.1,2.7-2.4,3.4c-4,2.3-8.1,4-16.1,4c-15,0-23.8-8.9-23.8-24.3c0-12.4,6.7-24.3,21.9-24.3
			c14.1,0,21.9,10.9,21.9,23.1c0,2.3-1.7,4.1-4.2,4.1h-31.1c0.9,8.3,6.2,13.6,16.1,13.6c5.5,0,9-1.1,12.4-2.8c0.6-0.3,1-0.4,1.7-0.4
			C267.2,56,269,57.5,269,59.6z M235.2,38.8h27.1c-0.6-9.5-7.7-13.4-13.6-13.4S235.7,29.3,235.2,38.8z"/>
		<path class="st3" d="M304.5,22.5c0,2.4-1.8,3.9-4.2,3.9h-0.5c-6.1,0-11,3.3-14.2,8.1v27.9c0,2.3-1.9,4.1-4.2,4.1
			c-2.3,0-4.1-1.8-4.1-4.1V23c0-2.3,1.8-4.2,4.1-4.2c2.3,0,4.2,1.9,4.2,4.2V27c3.3-4.4,8.1-8.6,14.4-8.6h0.5
			C302.8,18.4,304.5,20.2,304.5,22.5z"/>
		<path class="st3" d="M345,36.5v26c0,2.3-1.9,4.1-4.2,4.1c-2.3,0-4.1-1.8-4.1-4.1v-2.4c-3.3,3.4-8.6,7-17.3,7c-8,0-15-5.1-15-13.8
			s6.8-14.9,21.1-14.9h11.1v-0.7c0-8.2-4-11.4-12.3-11.4c-5.1,0-8.8,1.1-12.2,2.2c-0.4,0.1-0.8,0.2-1.2,0.2c-1.8,0-3.4-1.5-3.4-3.5
			c0-1.6,0.8-2.8,2.4-3.5c4.3-1.8,9.4-3.3,15.9-3.3C339.2,18.4,345,27.5,345,36.5z M336.6,52.8v-7.7h-10c-8.6,0-13.9,2-13.9,7.3
			c0,3.9,2.3,7.3,9.7,7.3C328.2,59.7,333.5,56.4,336.6,52.8z"/>
	</g>
</g>
</svg>
