<?xml version="1.0" encoding="utf-8"?>
<!-- Generator: Adobe Illustrator 19.0.0, SVG Export Plug-In . SVG Version: 6.00 Build 0)  -->
<svg version="1.1" id="Layer_1" xmlns="http://www.w3.org/2000/svg" xmlns:xlink="http://www.w3.org/1999/xlink" x="0px" y="0px"
	 viewBox="-125 386.7 345 68.2" style="enable-background:new -125 386.7 345 68.2;" xml:space="preserve">
<style type="text/css">
	.st0{fill:#FFFFFF;}
</style>
<g>
	<g>
		<path class="st0" d="M-112.2,454.9h-7c-2.1,0-3.7-1.7-3.7-3.7l0,0c0-2.1,1.7-3.7,3.7-3.7h7.1c2.1,0,3.7,1.7,3.7,3.7l0,0
			C-108.5,453.2-110.1,454.9-112.2,454.9z"/>
		<path class="st0" d="M-114.2,409.8h-7.1c-2.1,0-3.7-1.7-3.7-3.7l0,0c0-2.1,1.7-3.7,3.7-3.7h7.1c2.1,0,3.7,1.7,3.7,3.7l0,0
			C-110.5,408.1-112.1,409.8-114.2,409.8z"/>
		<path class="st0" d="M-43.4,429.4c0-10,4.9-20,14.5-25c-1.8-1.5-3.9-2.1-7.8-2.1h-16.9v-5.6c0-2.1-1.8-3.9-4.1-3.9H-75
			c-2.3,0-4.1,1.7-4.1,3.9v5.6h-21.1c-2.1,0-3.7,1.7-3.7,3.7c0,2.1,1.7,3.7,3.7,3.7h7.2c2.1,0,3.7,1.7,3.7,3.7s-1.7,3.7-3.7,3.7
			h-23.7c-2.1,0-3.7,1.7-3.7,3.7c0,2.1,1.7,3.7,3.7,3.7h14.7c2.1,0,3.7,1.7,3.7,3.7c0,2.1-1.7,3.7-3.7,3.7h-7.2
			c-2.1,0-3.7,1.7-3.7,3.7s1.7,3.7,3.7,3.7h21.4c2.1,0,3.7,1.7,3.7,3.7c0,2.1-1.7,3.7-3.7,3.7h-9.4c-2.1,0-3.7,1.7-3.7,3.7
			c0,2.1,1.7,3.7,3.7,3.7h60.5c2.2,0,4.2-0.6,5.9-1.5C-39.2,448.1-43.4,438.7-43.4,429.4z M-59,402.3h-14.7v-3.5
			c0-1.4,1.2-2.6,2.7-2.6h9.2c1.5,0,2.7,1.2,2.7,2.6L-59,402.3L-59,402.3z"/>
	</g>
	<g>
		<path class="st0" d="M1.8,446.1c0,1.4-0.7,2.5-1.8,3.2c-3.1,2-7.7,4.4-15,4.4c-13,0-24.5-9-24.5-24.3c0-15.3,11.5-24.3,24.5-24.3
			c7.3,0,11.8,2.4,15,4.4c1.1,0.7,1.8,1.8,1.8,3.2c0,1.7-1.6,3.7-3.5,3.7c-0.7,0-1.2-0.1-2-0.6c-3.2-1.7-5.8-2.9-10.6-2.9
			c-10.7,0-16.9,6.7-16.9,16.5c0,9.8,6.2,16.5,16.9,16.5c4.8,0,7.3-1.3,10.6-2.9c0.8-0.5,1.3-0.6,2-0.6
			C0.3,442.4,1.8,444.4,1.8,446.1z"/>
		<path class="st0" d="M45,423.2v26c0,2.3-1.9,4.1-4.2,4.1s-4.1-1.8-4.1-4.1v-2.4c-3.3,3.4-8.6,7-17.3,7c-8,0-15-5.1-15-13.8
			s6.8-14.9,21.1-14.9h11.1v-0.7c0-8.2-4-11.4-12.3-11.4c-5.1,0-8.8,1.1-12.2,2.2c-0.4,0.1-0.8,0.2-1.2,0.2c-1.8,0-3.4-1.5-3.4-3.5
			c0-1.6,0.8-2.8,2.4-3.5c4.3-1.8,9.4-3.3,15.9-3.3C39.2,405.1,45,414.2,45,423.2z M36.6,439.5v-7.7h-10c-8.6,0-13.9,2-13.9,7.3
			c0,3.9,2.3,7.3,9.7,7.3C28.2,446.4,33.5,443.1,36.6,439.5z"/>
		<path class="st0" d="M81.8,409.2c0,2.4-1.8,3.9-4.2,3.9h-0.5c-6.1,0-11,3.3-14.2,8.1v27.9c0,2.3-1.9,4.1-4.2,4.1s-4.1-1.8-4.1-4.1
			v-39.4c0-2.3,1.8-4.2,4.1-4.2s4.2,1.9,4.2,4.2v4c3.3-4.4,8.1-8.6,14.4-8.6h0.5C80,405.1,81.8,406.9,81.8,409.2z"/>
		<path class="st0" d="M95,391.8c0,2.6-2.1,4.7-4.7,4.7h-0.6c-2.6,0-4.7-2.1-4.7-4.7v-0.4c0-2.6,2.1-4.7,4.7-4.7h0.6
			c2.6,0,4.7,2.1,4.7,4.7V391.8z M94.2,409.7v39.4c0,2.3-1.8,4.1-4.2,4.1c-2.3,0-4.1-1.8-4.1-4.1v-39.4c0-2.4,1.8-4.2,4.1-4.2
			C92.4,405.5,94.2,407.4,94.2,409.7z"/>
		<path class="st0" d="M144,446.3c0,1.5-1.1,2.7-2.4,3.4c-4,2.3-8.1,4-16.1,4c-15,0-23.8-8.9-23.8-24.3c0-12.4,6.7-24.3,21.9-24.3
			c14.1,0,21.9,10.9,21.9,23.1c0,2.3-1.7,4.1-4.2,4.1h-31.1c0.9,8.3,6.2,13.6,16.1,13.6c5.5,0,9-1.1,12.4-2.8c0.6-0.3,1-0.4,1.7-0.4
			C142.2,442.7,144,444.2,144,446.3z M110.2,425.5h27.1c-0.6-9.5-7.7-13.4-13.6-13.4S110.7,416,110.2,425.5z"/>
		<path class="st0" d="M179.5,409.2c0,2.4-1.8,3.9-4.2,3.9h-0.5c-6.1,0-11,3.3-14.2,8.1v27.9c0,2.3-1.9,4.1-4.2,4.1
			c-2.3,0-4.1-1.8-4.1-4.1v-39.4c0-2.3,1.8-4.2,4.1-4.2c2.3,0,4.2,1.9,4.2,4.2v4c3.3-4.4,8.1-8.6,14.4-8.6h0.5
			C177.8,405.1,179.5,406.9,179.5,409.2z"/>
		<path class="st0" d="M220,423.2v26c0,2.3-1.9,4.1-4.2,4.1c-2.3,0-4.1-1.8-4.1-4.1v-2.4c-3.3,3.4-8.6,7-17.3,7c-8,0-15-5.1-15-13.8
			s6.8-14.9,21.1-14.9h11.1v-0.7c0-8.2-4-11.4-12.3-11.4c-5.1,0-8.8,1.1-12.2,2.2c-0.4,0.1-0.8,0.2-1.2,0.2c-1.8,0-3.4-1.5-3.4-3.5
			c0-1.6,0.8-2.8,2.4-3.5c4.3-1.8,9.4-3.3,15.9-3.3C214.2,405.1,220,414.2,220,423.2z M211.6,439.5v-7.7h-10c-8.6,0-13.9,2-13.9,7.3
			c0,3.9,2.3,7.3,9.7,7.3C203.2,446.4,208.5,443.1,211.6,439.5z"/>
	</g>
</g>
</svg>
