<?xml version="1.0" standalone="no"?>
<!DOCTYPE svg PUBLIC "-//W3C//DTD SVG 20010904//EN"
 "http://www.w3.org/TR/2001/REC-SVG-20010904/DTD/svg10.dtd">
<svg version="1.0" xmlns="http://www.w3.org/2000/svg"
 width="1000.000000pt" height="1000.000000pt" viewBox="0 0 1000.000000 1000.000000"
 preserveAspectRatio="xMidYMid meet">

<g transform="translate(0.000000,1000.000000) scale(0.100000,-0.100000)"
fill="#000000" stroke="none">
<path d="M4908 6666 c-3 -17 -1 -23 6 -19 6 4 5 0 -2 -9 -7 -8 -10 -22 -7 -29
2 -8 7 -79 10 -159 3 -80 8 -163 10 -185 9 -103 17 -240 18 -342 1 -61 5 -109
10 -106 8 4 10 -19 9 -107 -1 -30 4 -70 10 -89 9 -30 12 -59 22 -211 2 -25 7
-56 13 -70 11 -28 6 -63 -8 -55 -5 3 -6 -1 -3 -9 7 -18 9 -18 -103 -16 -77 1
-82 0 -88 -22 -4 -13 -22 -54 -40 -93 -38 -79 -147 -415 -135 -415 4 0 11 -12
15 -27 16 -65 73 -81 156 -43 60 27 89 25 169 -10 122 -53 170 -37 209 73 27
77 30 77 111 4 63 -57 154 -103 221 -112 44 -7 47 -5 53 19 5 21 12 26 39 26
48 0 132 46 168 91 42 53 57 108 58 218 2 112 -15 157 -82 218 -40 37 -120 73
-163 73 -7 0 -14 25 -18 63 -49 449 -275 939 -607 1316 -45 51 -46 52 -51 27z"/>
<path d="M4283 5253 l-133 -4 0 -44 c0 -41 2 -45 24 -45 27 0 42 -15 26 -25
-20 -12 -9 -55 28 -114 38 -58 39 -63 46 -177 9 -156 33 -197 101 -180 37 9
48 41 56 162 7 120 16 144 74 214 30 35 36 50 33 77 -2 18 0 33 4 33 4 0 8 25
8 55 l0 55 -67 -2 c-38 -1 -128 -4 -200 -5z"/>
<path d="M3740 4988 c0 -283 2 -294 53 -332 42 -31 147 -30 179 1 19 19 20 26
10 48 -11 25 -11 25 33 25 l45 0 0 50 0 50 -55 0 c-54 0 -55 1 -44 21 6 12 9
39 7 60 l-4 39 39 0 38 0 -3 48 c-3 43 -5 47 -30 50 -32 4 -32 3 -16 37 10 22
8 29 -12 50 l-23 25 51 0 52 0 0 45 0 45 -160 0 -160 0 0 -262z"/>
<path d="M6042 5023 c3 -209 5 -231 25 -268 40 -75 105 -115 187 -115 102 0
190 75 211 180 l7 35 -30 -41 c-42 -57 -101 -84 -183 -83 -113 1 -105 -22
-100 268 l3 251 -62 0 -62 0 4 -227z"/>
<path d="M6730 5135 c-26 -32 1 -60 89 -90 64 -22 71 -20 71 20 0 32 -3 35
-28 35 -21 0 -32 7 -40 25 -9 20 -19 25 -46 25 -18 0 -39 -7 -46 -15z"/>
<path d="M3463 5020 c-6 -14 -32 -85 -58 -157 l-47 -133 -53 0 -53 0 -30 78
c-16 42 -40 107 -53 144 -13 36 -27 64 -32 61 -4 -3 -5 -68 -1 -144 l7 -139
-62 0 c-58 0 -61 -1 -51 -20 15 -28 51 -34 95 -16 50 21 61 20 120 -9 55 -28
75 -27 142 8 38 19 46 20 75 8 57 -23 87 -25 108 -6 31 28 24 35 -37 35 l-58
0 3 127 c2 71 2 142 0 158 l-4 30 -11 -25z"/>
<path d="M6595 4998 c4 -13 19 -41 34 -63 20 -30 35 -41 58 -43 21 -2 34 -11
41 -27 22 -49 112 -41 112 9 0 31 -26 50 -107 77 -34 11 -78 31 -98 45 -44 30
-48 30 -40 2z"/>
<path d="M6921 4763 c-64 -43 -135 -53 -214 -29 -47 14 -47 14 -47 -10 0 -85
164 -110 248 -39 29 24 57 76 51 93 -2 4 -19 -2 -38 -15z"/>
<path d="M5197 3698 c-27 -36 -66 -109 -49 -93 15 15 83 125 78 125 -3 0 -16
-15 -29 -32z"/>
</g>
</svg>
