<?xml version="1.0" encoding="utf-8"?>
<!-- Generator: Adobe Illustrator 19.0.0, SVG Export Plug-In . SVG Version: 6.00 Build 0)  -->
<svg version="1.1" id="Capa_1" xmlns="http://www.w3.org/2000/svg" xmlns:xlink="http://www.w3.org/1999/xlink" x="0px" y="0px"
	 viewBox="-929 96 60 60" style="enable-background:new -929 96 60 60;" xml:space="preserve">
<style type="text/css">
	.st0{fill:#2C2F33;}
</style>
<g>
	<g>
		<path class="st0" d="M-870,116h-30c-0.6,0-1,0.4-1,1v38c0,0.6,0.4,1,1,1h30c0.6,0,1-0.4,1-1v-38C-869,116.4-869.4,116-870,116z
			 M-871,118v6h-28c0-0.6,0-1.6,0-2h12v-2h-12c0-0.2,0-2,0-2H-871z M-899,154c0,0,0-18.3,0-28h28v28H-899z"/>
		<rect x="-894" y="128" class="st0" width="3" height="2"/>
		<rect x="-889" y="128" class="st0" width="3" height="2"/>
		<rect x="-884" y="128" class="st0" width="3" height="2"/>
		<rect x="-879" y="128" class="st0" width="3" height="2"/>
		<rect x="-896" y="133" class="st0" width="4" height="2"/>
		<rect x="-890" y="133" class="st0" width="4" height="2"/>
		<rect x="-884" y="133" class="st0" width="4" height="2"/>
		<rect x="-878" y="133" class="st0" width="4" height="2"/>
		<rect x="-896" y="137" class="st0" width="4" height="2"/>
		<rect x="-890" y="137" class="st0" width="4" height="2"/>
		<rect x="-884" y="137" class="st0" width="4" height="2"/>
		<rect x="-878" y="137" class="st0" width="4" height="2"/>
		<rect x="-896" y="141" class="st0" width="4" height="2"/>
		<rect x="-890" y="141" class="st0" width="4" height="2"/>
		<rect x="-884" y="141" class="st0" width="4" height="2"/>
		<rect x="-878" y="141" class="st0" width="4" height="2"/>
		<rect x="-896" y="145" class="st0" width="4" height="2"/>
		<rect x="-890" y="145" class="st0" width="4" height="2"/>
		<rect x="-884" y="145" class="st0" width="4" height="2"/>
		<rect x="-878" y="145" class="st0" width="4" height="2"/>
		<rect x="-896" y="149" class="st0" width="4" height="2"/>
		<rect x="-890" y="149" class="st0" width="4" height="2"/>
		<rect x="-884" y="149" class="st0" width="4" height="2"/>
		<rect x="-878" y="149" class="st0" width="4" height="2"/>
		<path class="st0" d="M-927,110h11c0.6,0,1-0.4,1-1V98h34v14h2V97c0-0.6-0.4-1-1-1h-36l0,0c-0.1,0-0.2,0-0.3,0.1h-0.1
			c-0.1,0.1-0.2,0.1-0.3,0.2l-12,12c-0.1,0.1-0.1,0.2-0.2,0.3v0.1c0,0.1-0.1,0.2-0.1,0.3l0,0v11h2C-927,120-927,111.1-927,110z
			 M-917,108h-8.6l4.3-4.3l4.3-4.3V108L-917,108z"/>
		<path class="st0" d="M-904,139h-11v-4v-5v-5c0-0.6-0.4-1-1-1h-12c-0.6,0-1,0.4-1,1v5v5v5v5v5v5c0,0.6,0.4,1,1,1h12h12
			c0.6,0,1-0.4,1-1v-5v-5v-5C-903,139.4-903.4,139-904,139z M-927,141h10v3h-10V141z M-917,139h-10v-3h10V139z M-917,134h-10v-3h10
			V134z M-927,146h10v3h-10V146z M-915,146h10v3h-10V146z M-905,144h-10v-3h10V144z M-927,126h10v3h-10V126z M-927,151h10v3h-10V151
			z M-905,154h-10v-3h10V154z"/>
		<rect x="-891" y="101" class="st0" width="7" height="2"/>
		<rect x="-902" y="106" class="st0" width="18" height="2"/>
		<rect x="-885" y="120" class="st0" width="3" height="2"/>
	</g>
</g>
</svg>
