<?xml version="1.0" encoding="utf-8"?>
<!-- Generator: Adobe Illustrator 19.0.0, SVG Export Plug-In . SVG Version: 6.00 Build 0)  -->
<svg version="1.1" id="Objects" xmlns="http://www.w3.org/2000/svg" xmlns:xlink="http://www.w3.org/1999/xlink" x="0px" y="0px"
	 viewBox="0 0 107.5 156.6" style="enable-background:new 0 0 107.5 156.6;" xml:space="preserve">
<style type="text/css">
	.st0{fill:#FFFFFF;}
</style>
<path class="st0" d="M26.6,156.5c8.5,0.3,17.4,0.2,25.8-1.4c0.7-0.1,1.1-0.5,1.3-0.9c1.2,0,2.3-1.4,1.4-2.8
	c-2.6-4.3-5.4-8.4-7.7-12.8c0.2-0.1,0.3-0.1,0.5-0.2c0.4-0.1,0.2-0.8-0.2-0.7c-0.2,0.1-0.4,0.1-0.7,0.2c0,0,0-0.1-0.1-0.1
	c9.9-3,17.5-11,24-18.7c1.8-2.2,3.6-4.4,5.3-6.8c0,0,0.1,0,0.1,0c0.4-0.1,0.5-0.4,0.4-0.6c3.7-5.2,7.1-10.6,10.2-16.2
	c0.2-0.1,0.3-0.3,0.2-0.4c1.4-2.5,2.7-5,4.1-7.5c13.4-25.9,21.3-58.4,12.1-86.9c-0.4-1.2-2.2-0.7-2.3,0.4
	C93.4,8.5,88.6,18.2,82.5,27c-9.4-5.6-19.1-10.6-29.3-14.4c-0.5-0.2-0.9-0.2-1.3-0.1c-0.8-0.4-1.8,0.3-1.5,1.4c0,0.1,0,0.1,0.1,0.2
	c-0.2,0.8,0,1.7,0.8,2.2c11.2,32.1,15.1,77-14.5,100.3c-2.3-4-4.7-8.2-7.6-11.9c-0.2-0.3-0.5-0.4-0.8-0.5c0.2-1.1-1.5-1.9-2.2-0.9
	c-10.1,14.5-18,30.4-26.1,46.1c-0.5,1,0.3,2.2,1.2,2.6C9.1,155.6,18.2,156.2,26.6,156.5z M50.8,151.5c-5.2,0.5-10.3,0.9-15.4,1
	c4.4-1.3,8.7-3.2,13-4.7C49.1,149.1,49.9,150.3,50.8,151.5z M101.7,4.1c0.3,1.5,0.5,2.9,0.8,4.4c-1.2,0.3-2.4,0.6-3.6,1.1
	c-0.6,0.2-1.3,0.5-1.9,0.8C98.5,8.3,100,6.2,101.7,4.1z M95.6,12.6c1.3-0.6,2.5-1.5,3.7-2.1c1.1-0.5,2.2-1.1,3.3-1.6
	c0.2,1.4,0.4,2.8,0.5,4.2c-2,0.3-3.9,0.7-5.8,1.3c-1.2,0.4-2.4,0.7-3.6,1.2C94.3,14.6,94.9,13.6,95.6,12.6z M92.2,18.1
	c1.4-0.6,2.8-1.3,4.2-1.9c2.2-1,4.5-1.8,6.8-2.3c0.1,0.9,0.2,1.8,0.2,2.8c-2.5,0.4-4.9,1-7.3,1.8c-1.7,0.6-3.6,1.2-5.3,2
	C91.3,19.7,91.7,18.9,92.2,18.1z M88.9,23.7c2.4-0.9,4.6-2.4,6.9-3.4c2.5-1.1,5-2.1,7.6-2.7c0.1,1.4,0.2,2.7,0.2,4.1
	c-5.4,1.1-10.8,2.6-16.2,4.4C88,25.3,88.5,24.5,88.9,23.7z M55,17.7c2.4,1,4.7,2,7,3.1c-0.6,0-1.3,0.1-1.9,0.1
	c-1,0.1-2.2,0.3-3.4,0.7C56.2,20.3,55.6,19,55,17.7z M57.3,23.1c0.8-0.3,1.6-0.6,2.4-0.8c1.5-0.4,3.1-0.5,4.6-0.4
	c1.6,0.8,3.2,1.6,4.9,2.4c-3.6,0.2-7.2,1.2-10.6,2.3C58.2,25.4,57.8,24.3,57.3,23.1z M59.1,28.2c4-0.9,7.7-2.8,11.9-3
	c1.7,0.9,3.4,1.8,5.1,2.7c-2.4,0.4-4.7,1-7.1,1.7c-2.6,0.8-6.2,1.5-8.3,3.4c-0.1,0.1-0.1,0.2-0.1,0.2C60.1,31.5,59.6,29.8,59.1,28.2
	z M60.7,33.7c0.1,0.1,0.2,0.2,0.4,0.1c2.5-0.2,5-1.8,7.3-2.7c2.9-1.1,5.9-2,8.9-2.5c0.5,0.3,1,0.6,1.5,0.9c-6,2.5-11.8,5.4-17.3,8.4
	C61.3,36.5,61,35.1,60.7,33.7z M61.9,39.5c6.7-2.8,13.3-5.7,20-8.4c0,0,0,0,0.1,0c0.9,0.5,2.1,0.5,2.8-0.4c0.2-0.3,0.4-0.6,0.6-1
	c6.1-2.4,12.2-4.7,18.4-6.7c0,1.5,0,3,0,4.5c-14,4.2-27.7,9.6-41.3,14.8C62.3,41.4,62.1,40.5,61.9,39.5z M62.7,44.3
	C76.6,40.3,90,34,103.7,29c-0.1,2-0.2,4.1-0.4,6.1C89.6,38,75.9,42.5,63.1,48.2C63,46.9,62.9,45.6,62.7,44.3z M63.3,49.8
	c13.2-4.9,26.3-9.9,39.9-13.7c-0.2,1.9-0.4,3.8-0.7,5.7c-5.9,0-11.7,2.2-17.1,4.2c-7.2,2.6-14.9,5.3-21.8,8.7
	C63.5,53,63.4,51.4,63.3,49.8z M63.6,56.5c6.3-1.2,12.7-5.1,18.5-7.5c6.3-2.6,13.3-5.8,20.3-6.4c-0.2,1.5-0.5,3.1-0.8,4.6
	c-6.3,0.7-12.5,2.3-18.6,4.2c-6.4,2-13.2,3.9-19.4,6.5C63.6,57.5,63.6,57,63.6,56.5z M63.7,59.7c5.7-1.2,11.4-3.7,16.9-5.7
	c6.8-2.4,13.7-4.5,20.9-5.7c-0.2,1-0.4,2.1-0.7,3.1c-6.6,2.4-13.2,4.5-19.8,6.7c-5.6,1.8-12.4,3.4-17.4,6.7
	C63.6,63.1,63.7,61.4,63.7,59.7z M63.1,70.3c0.1-1.2,0.2-2.4,0.3-3.6c6.2-1.8,12.2-4.8,18.2-7c6.3-2.3,12.6-4.5,18.8-7
	c-0.6,2.4-1.2,4.8-1.9,7.1C86.4,62.2,73.8,67.3,62.8,73C62.9,72.1,63,71.2,63.1,70.3z M62.6,75c12-4.7,23.3-10.3,35.7-14
	c-0.6,2.1-1.3,4.2-2,6.2c-11.7,3.1-23.4,7.1-34.4,12.1C62.1,77.8,62.3,76.4,62.6,75z M61.4,81.2c11.5-4.2,22.8-8.8,34.4-12.8
	c-0.7,2-1.5,3.9-2.2,5.9C82.2,76.7,71,80.8,60.4,85.5C60.8,84.1,61.1,82.6,61.4,81.2z M59.8,87.7C71,83.6,81.6,78,93.3,75
	c-0.8,1.9-1.6,3.7-2.4,5.6c-10.6,1-22.2,4.9-31.9,9.8C59.2,89.5,59.5,88.6,59.8,87.7z M57.8,93.3c10.7-4.6,21.1-9.1,32.6-11.8
	c-0.5,1-0.9,2-1.4,3c-0.4,0.8-0.8,1.6-1.2,2.4c-5,2.2-10,4.5-15.2,6.3c-5.4,1.9-10.8,2.7-16.3,3.6C56.9,95.7,57.4,94.5,57.8,93.3z
	 M55.5,98.8c5,0.1,10.1-1.6,14.7-3.1c5.8-1.9,11.5-4.3,16.9-7.2c-1.2,2.2-2.4,4.4-3.7,6.6c-4.8,0.6-9.4,1.9-14,3.3
	c-5.4,1.7-11.3,3.3-16.7,5.5C53.7,102.3,54.6,100.5,55.5,98.8z M51.2,106.2c5.4-0.7,10.7-3.2,15.7-5.1c5.1-1.9,10.3-3.6,15.6-4.8
	c-1.4,2.4-3,4.8-4.5,7.1c-10.6,2.5-20.9,5.9-31.4,8.7C48.3,110.3,49.9,108.3,51.2,106.2z M44.4,114.6c11.1-2.5,21.8-6.7,32.8-9.7
	c-1.5,2.3-3.1,4.5-4.8,6.7c-10.1,1-20.4,2.9-30.5,5.3C42.7,116.2,43.5,115.4,44.4,114.6z M27.1,107c0.7,1.5,1.5,3.1,2.3,4.6
	c-1.6,0.1-3.4,0.2-5,0.6C25.2,110.4,26.1,108.7,27.1,107z M23.2,114.1c0.9-0.3,1.8-0.7,2.8-0.9c1.3-0.3,2.6-0.5,3.9-0.7
	c0.7,1.1,1.3,2.3,2,3.4c-3.6,0.2-7.2,0.7-10.6,1.8C22,116.5,22.6,115.3,23.2,114.1z M20.3,119.6c4-1.2,8-2.4,12.2-2.9
	c0.5,0.8,1,1.5,1.5,2.3c-5.2,1.4-10.4,3-15.4,4.6c-0.8,0.3-0.4,1.6,0.4,1.5c17.5-3.1,34.6-8.4,52.1-11.8c-1.3,1.8-2.7,3.6-4.2,5.4
	c-17.7,2.5-35.7,6-52.5,12.1C16.4,127.1,18.3,123.4,20.3,119.6z M13.2,133.1c17.3-5.7,35-9.6,52.8-13.2c-1.6,1.9-3.3,3.7-5,5.4
	c-9.2,0.1-18.8,2.1-27.7,3.9c-5.4,1-10.7,2.3-15.9,3.9c-1.4,0.4-3.3,0.9-5,1.8C12.6,134.3,12.9,133.7,13.2,133.1z M10.5,138.1
	c0.1,0,0.2-0.1,0.2-0.1c2-2.1,6.1-2.8,8.7-3.6c5-1.5,10.1-2.5,15.1-3.6c8.1-1.7,16.6-3.7,24.9-4.3c-1.9,1.7-3.9,3.2-5.9,4.6
	c-14.4,4.2-30.6,3.6-44.4,9.6C9.6,139.9,10.1,139,10.5,138.1z M7.8,143.3c13.4-4.3,27.4-5.8,40.8-9.6c-1.1,0.5-2.2,0.9-3.3,1.2
	c-0.2,0-0.3,0.1-0.4,0.2c-0.7,0-1.4,0.6-1.1,1.4c0.2,0.7,0.4,1.4,0.6,2.1c-6.6,1.6-13.2,3.1-19.8,4.5c-6.2,1.3-12.8,2.2-18.9,4.3
	C6.4,146.1,7.1,144.7,7.8,143.3z M26.7,144.6c6.1-1.5,12.1-3.1,18-5.1c0.8,2.4,1.9,4.9,3.1,7.2c-6,1.4-12.2,3.3-17.9,5.4
	c-0.2,0.1-0.4,0.2-0.4,0.4c-0.8,0-1.6,0-2.5,0c-2.6-0.1-5.3-0.2-8-0.4c3.5-1,7-2.3,10.4-3.4c5.5-1.7,11.1-3,16.8-3.7
	c0.5-0.1,0.4-0.8-0.1-0.8c-5.8,0.4-11.3,1.7-16.9,3.2c-5,1.3-10.5,2.3-15.4,4c-2.7-0.5-5.4-1.1-8-2
	C12.8,148.5,19.9,146.3,26.7,144.6z"/>
</svg>
