<?xml version="1.0" encoding="utf-8"?>
<!-- Generator: Adobe Illustrator 19.0.0, SVG Export Plug-In . SVG Version: 6.00 Build 0)  -->
<svg version="1.1" id="Layer_1" xmlns="http://www.w3.org/2000/svg" xmlns:xlink="http://www.w3.org/1999/xlink" x="0px" y="0px"
	 viewBox="-711 -123 496 496" style="enable-background:new -711 -123 496 496;" xml:space="preserve">
<style type="text/css">
	.st0{fill:#2C2F33;}
</style>
<g>
	<g>
		<g>
			<rect x="-575" y="325" class="st0" width="48" height="16"/>
			<path class="st0" d="M-391-43v-40c0-22.1-17.9-40-40-40h-240c-22.1,0-40,17.9-40,40v416c0,22.1,17.9,40,40,40h240
				c22.1,0,40-17.9,40-40v-56h176V-43H-391z M-695-83c0-13.2,10.8-24,24-24h240c13.2,0,24,10.8,24,24v8h-288V-83z M-407,333
				c0,13.2-10.8,24-24,24h-240c-13.2,0-24-10.8-24-24v-24h288V333z M-407,293h-288V-59h288v16h-48v272h-120c-4.4,0-8-3.6-8-8v-88.4
				c44.8-4.1,80-41.8,80-87.6V13c0-19.3-13.8-35.5-32-39.2V-43h-48V5h48V-9.5c9.3,3.3,16,12.1,16,22.5v32c0,39.7-32.3,72-72,72
				s-72-32.3-72-72V13c0-10.4,6.7-19.2,16-22.5V5h48v-48h-48v16.8c-18.2,3.7-32,19.9-32,39.2v32c0,45.8,35.2,83.5,80,87.6V221
				c0,13.2,10.8,24,24,24h120v32h48V293z M-439,245h16v16h-16V245z M-551-27v16h-16v-16H-551z M-631-11v-16h16v16H-631z M-263,261
				h-144v-16h56c13.2,0,24-10.8,24-24v-17.1c13.8-3.6,24-16,24-30.9c0-17.6-14.4-32-32-32s-32,14.4-32,32c0,14.9,10.2,27.3,24,30.9
				V221c0,4.4-3.6,8-8,8h-56v-24c0-39.7,32.3-72,72-72s72,32.3,72,72V261z M-335,189c-8.8,0-16-7.2-16-16s7.2-16,16-16
				c8.8,0,16,7.2,16,16S-326.2,189-335,189z M-231,261h-16v-56c0-48.5-39.5-88-88-88s-88,39.5-88,88v24h-16V-27h208V261z"/>
			<path class="st0" d="M-271,53c0-35.3-28.7-64-64-64s-64,28.7-64,64s28.7,64,64,64S-271,88.3-271,53z M-335,101
				c-26.5,0-48-21.5-48-48s21.5-48,48-48s48,21.5,48,48S-308.5,101-335,101z"/>
		</g>
	</g>
</g>
</svg>
