<?xml version="1.0" encoding="utf-8"?>
<!-- Generator: Adobe Illustrator 19.0.0, SVG Export Plug-In . SVG Version: 6.00 Build 0)  -->
<svg version="1.1" id="Capa_1" xmlns="http://www.w3.org/2000/svg" xmlns:xlink="http://www.w3.org/1999/xlink" x="0px" y="0px"
	 viewBox="0 0 446.5 504.3" style="enable-background:new 0 0 446.5 504.3;" xml:space="preserve">
<style type="text/css">
	.st0{fill-rule:evenodd;clip-rule:evenodd;fill:#30617D;}
	.st1{fill-rule:evenodd;clip-rule:evenodd;fill:#FFFFFF;}
	.st2{fill-rule:evenodd;clip-rule:evenodd;fill:#CCCCCC;}
	.st3{fill-rule:evenodd;clip-rule:evenodd;fill:#4C8EB4;}
	.st4{fill-rule:evenodd;clip-rule:evenodd;fill:#9ACAE6;}
	.st5{fill-rule:evenodd;clip-rule:evenodd;fill:#87BBDA;}
	.st6{fill-rule:evenodd;clip-rule:evenodd;fill:#73ACCD;}
	.st7{fill-rule:evenodd;clip-rule:evenodd;fill:#609DC1;}
	.st8{fill-rule:evenodd;clip-rule:evenodd;fill:#F85A68;}
	.st9{fill-rule:evenodd;clip-rule:evenodd;fill:#C62229;}
	.st10{fill-rule:evenodd;clip-rule:evenodd;fill:#D0D0D0;}
	.st11{fill-rule:evenodd;clip-rule:evenodd;fill:#F5E6B6;}
	.st12{fill-rule:evenodd;clip-rule:evenodd;fill:#FFD800;}
	.st13{fill-rule:evenodd;clip-rule:evenodd;fill:#F0B16C;}
	.st14{fill-rule:evenodd;clip-rule:evenodd;fill:#C78B4C;}
	.st15{fill-rule:evenodd;clip-rule:evenodd;fill:#1E1E1E;}
</style>
<rect x="85.5" y="51.5" transform="matrix(-0.9026 0.4305 -0.4305 -0.9026 555.742 395.0603)" class="st0" width="295.4" height="417.8"/>
<g>
	
		<rect x="75.6" y="43.2" transform="matrix(-0.9026 0.4305 -0.4305 -0.9026 533.3373 383.6062)" class="st1" width="295.4" height="417.8"/>
	
		<rect x="82.5" y="103.6" transform="matrix(-0.9026 0.4305 -0.4305 -0.9026 339.5234 137.7839)" class="st2" width="143.4" height="7.4"/>
	
		<rect x="41.5" y="120.2" transform="matrix(-0.9026 0.4305 -0.4305 -0.9026 361.7308 165.9502)" class="st2" width="241.2" height="7.4"/>
	
		<rect x="47" y="131.8" transform="matrix(-0.9026 0.4305 -0.4305 -0.9026 377.2761 185.6663)" class="st2" width="241.2" height="7.4"/>
	
		<rect x="52.6" y="143.5" transform="matrix(-0.9026 0.4305 -0.4305 -0.9026 392.8205 205.3827)" class="st2" width="241.2" height="7.4"/>
	
		<rect x="58.1" y="155.1" transform="matrix(-0.9026 0.4305 -0.4305 -0.9026 408.3648 225.0986)" class="st2" width="241.2" height="7.4"/>
	
		<rect x="63.7" y="166.7" transform="matrix(-0.9026 0.4305 -0.4305 -0.9026 423.9101 244.8151)" class="st2" width="241.2" height="7.4"/>
	
		<rect x="69.2" y="178.3" transform="matrix(-0.9026 0.4305 -0.4305 -0.9026 439.455 264.5316)" class="st2" width="241.2" height="7.4"/>
	
		<rect x="74.7" y="189.9" transform="matrix(-0.9026 0.4305 -0.4305 -0.9026 454.9997 284.2474)" class="st2" width="241.2" height="7.4"/>
	
		<rect x="80.3" y="201.5" transform="matrix(-0.9026 0.4305 -0.4305 -0.9026 470.5447 303.9636)" class="st2" width="241.2" height="7.4"/>
	
		<rect x="91.7" y="239.1" transform="matrix(-0.9026 0.4305 -0.4305 -0.9026 393.7215 396.5052)" class="st2" width="120.6" height="7.4"/>
	<g>
		<circle class="st3" cx="316.1" cy="239.3" r="31.3"/>
		<path class="st4" d="M311.8,270.3c-5.3-0.7-10.4-2.8-14.7-6.1l19-24.9L311.8,270.3z"/>
		<path class="st5" d="M297.1,264.2c-3.8-2.9-7-6.8-9.2-11.4c-4.3-9-3.9-19.1,0.2-27.4l28,13.9L297.1,264.2z"/>
		<path class="st6" d="M288.1,225.4c3-6,8-11.2,14.5-14.3l13.5,28.2L288.1,225.4z"/>
		<path class="st7" d="M302.6,211.1l13.5,28.2l10.7-29.4C319.2,207.2,310.5,207.3,302.6,211.1z"/>
	</g>
	<g>
		
			<rect x="136.2" y="331.6" transform="matrix(-0.9026 0.4305 -0.4305 -0.9026 539.2137 544.933)" class="st2" width="143.5" height="3.7"/>
		
			<rect x="124.6" y="284.1" transform="matrix(-0.9026 0.4306 -0.4306 -0.9026 400.2026 554.5104)" class="st3" width="25.5" height="76.9"/>
		
			<rect x="157.5" y="299" transform="matrix(-0.9026 0.4306 -0.4306 -0.9026 462.8933 541.0795)" class="st7" width="25.5" height="47.9"/>
		
			<rect x="187.6" y="301.7" transform="matrix(-0.9026 0.4305 -0.4305 -0.9026 517.8746 517.8687)" class="st6" width="25.5" height="31.7"/>
		
			<rect x="211" y="274.9" transform="matrix(-0.9026 0.4306 -0.4306 -0.9026 554.1003 470.8662)" class="st5" width="25.5" height="46.5"/>
		
			<rect x="240.5" y="274.8" transform="matrix(-0.9026 0.4306 -0.4306 -0.9026 607.2935 445.3851)" class="st4" width="25.5" height="33.3"/>
		
			<rect x="305.6" y="282" transform="matrix(-0.9026 0.4306 -0.4306 -0.9026 715.8492 405.6607)" class="st2" width="12.9" height="3.7"/>
		
			<rect x="321.4" y="268.4" transform="matrix(-0.9026 0.4305 -0.4305 -0.9026 764.1391 367.5941)" class="st2" width="38.3" height="3.7"/>
	</g>
	
		<rect x="145.2" y="352.3" transform="matrix(-0.9026 0.4305 -0.4305 -0.9026 534.7695 591.0066)" class="st2" width="110.7" height="7.4"/>
	
		<rect x="150.7" y="364" transform="matrix(-0.9026 0.4305 -0.4305 -0.9026 550.3141 610.7223)" class="st2" width="110.7" height="7.4"/>
	
		<rect x="156.2" y="375.6" transform="matrix(-0.9026 0.4305 -0.4305 -0.9026 565.859 630.4389)" class="st2" width="110.7" height="7.4"/>
	
		<rect x="161.8" y="387.2" transform="matrix(-0.9026 0.4305 -0.4305 -0.9026 581.4037 650.1557)" class="st2" width="110.7" height="7.4"/>
	
		<rect x="167.3" y="398.8" transform="matrix(-0.9026 0.4305 -0.4305 -0.9026 596.9493 669.8705)" class="st2" width="110.7" height="7.4"/>
	
		<rect x="172.9" y="410.4" transform="matrix(-0.9026 0.4305 -0.4305 -0.9026 612.4918 689.5894)" class="st2" width="110.7" height="7.4"/>
	
		<rect x="178.4" y="422" transform="matrix(-0.9026 0.4305 -0.4305 -0.9026 628.0392 709.3027)" class="st2" width="110.7" height="7.4"/>
	
		<rect x="186.7" y="445.6" transform="matrix(-0.9026 0.4305 -0.4305 -0.9026 601.1899 762.4448)" class="st2" width="55.3" height="7.4"/>
	
		<rect x="263" y="296.1" transform="matrix(-0.9026 0.4305 -0.4305 -0.9026 734.6787 433.3918)" class="st2" width="110.7" height="7.4"/>
	
		<rect x="268.5" y="307.8" transform="matrix(-0.9026 0.4305 -0.4305 -0.9026 750.2234 453.1076)" class="st2" width="110.7" height="7.4"/>
	
		<rect x="274" y="319.4" transform="matrix(-0.9026 0.4305 -0.4305 -0.9026 765.7688 472.8241)" class="st2" width="110.7" height="7.4"/>
	
		<rect x="279.6" y="331" transform="matrix(-0.9026 0.4305 -0.4305 -0.9026 781.3126 492.5407)" class="st2" width="110.7" height="7.4"/>
	
		<rect x="285.1" y="342.6" transform="matrix(-0.9026 0.4305 -0.4305 -0.9026 796.8567 512.2592)" class="st2" width="110.7" height="7.4"/>
	
		<rect x="290.7" y="354.2" transform="matrix(-0.9026 0.4305 -0.4305 -0.9026 812.4038 531.9719)" class="st2" width="110.7" height="7.4"/>
	
		<rect x="296.2" y="365.8" transform="matrix(-0.9026 0.4305 -0.4305 -0.9026 827.9485 551.6879)" class="st2" width="110.7" height="7.4"/>
	
		<rect x="303.3" y="384.5" transform="matrix(-0.9026 0.4305 -0.4305 -0.9026 818.3853 591.2009)" class="st2" width="77.9" height="7.4"/>
</g>
<g>
	<path class="st0" d="M444.1,247.4l-1.7,25.3l-17.5-18.3L365.2,90.3l0,0l-2.2-6.1l-2.8-7.7c-1-2.9,0.5-6.1,3.3-7.2l4.4-1.6l4.4-1.6
		c2.9-1,6.1,0.5,7.2,3.3l5,13.9L444.1,247.4z"/>
	<g>
		<path class="st8" d="M434.8,241.8l-1.7,25.3l-17.5-18.3l-64.7-178c-1-2.9,0.5-6.1,3.3-7.2l8.7-3.2c2.9-1,6.1,0.5,7.2,3.3
			L434.8,241.8z"/>
		<path class="st9" d="M434.8,241.8l-1.7,25.3l-8.2-22.7L358.6,62.1l4.4-1.6c2.9-1,6.1,0.5,7.2,3.3L434.8,241.8z"/>
		<path class="st1" d="M434.8,241.8l-1.7,25.3l-17.5-18.3L353.7,78.6c6.4-3.6,12.7-5.9,19.2-7L434.8,241.8z"/>
		<path class="st10" d="M434.8,241.8l-1.7,25.3l-8.2-22.7L363,74.3c3.3-1.2,6.6-2.1,9.9-2.7L434.8,241.8z"/>
		<path class="st11" d="M434.8,241.8l-1.7,25.3l-17.5-18.3L356,84.7c6.4-3.7,12.7-6,19.2-7L434.8,241.8z"/>
		<path class="st12" d="M434.8,241.8l-1.7,25.3l-8.2-22.7L365.3,80.3c3.3-1.2,6.6-2.1,9.9-2.6L434.8,241.8z"/>
		<path class="st13" d="M434.8,241.8l-1.7,25.3l-17.5-18.3c2.8-1.7,6-3.2,9.3-4.4C428.2,243.2,431.6,242.4,434.8,241.8z"/>
		<path class="st14" d="M434.8,241.8l-1.7,25.3l-8.2-22.7C428.2,243.2,431.6,242.4,434.8,241.8z"/>
		<path class="st15" d="M433.7,258.8l-0.6,8.4l-5.8-6.1c0.9-0.6,2-1,3.1-1.4C431.5,259.2,432.6,259,433.7,258.8z"/>
	</g>
</g>
</svg>
