<?xml version="1.0" encoding="utf-8"?>
<!-- Generator: Adobe Illustrator 19.0.0, SVG Export Plug-In . SVG Version: 6.00 Build 0)  -->
<svg version="1.1" id="Layer_1" xmlns="http://www.w3.org/2000/svg" xmlns:xlink="http://www.w3.org/1999/xlink" x="0px" y="0px"
	 viewBox="-703 -131 512 512" style="enable-background:new -703 -131 512 512;" xml:space="preserve">
<style type="text/css">
	.st0{fill:#2C2F33;}
</style>
<g>
	<g>
		<g>
			<path class="st0" d="M-370.2,107.9c4.7,0,8.5-3.8,8.5-8.5V31.1c0-4.7-3.8-8.5-8.5-8.5h-51.2c-4.7,0-8.5,3.8-8.5,8.5v68.3
				c0,4.7,3.8,8.5,8.5,8.5H-370.2z M-412.9,39.7h34.1v51.2h-34.1V39.7z"/>
			<path class="st0" d="M-595.3,30.5c1.1,0.4,2.2,0.6,3.3,0.6c2.2,0,4.4-0.9,6-2.5L-447-110.4l139,139.1c2.4,2.4,6.1,3.2,9.3,1.9
				c3.2-1.3,5.3-4.4,5.3-7.9v-128c0-4.7-3.8-8.5-8.5-8.5h-85.3c-4.7,0-8.5,3.8-8.5,8.5s3.8,8.5,8.5,8.5h76.8V2l-130.4-130.5
				c-3.2-3.2-8.9-3.2-12.1,0L-583.5,2v-98.9h42.7c4.7,0,8.5-3.8,8.5-8.5v-8.5h17.1v8.5c0,4.7,3.8,8.5,8.5,8.5c4.7,0,8.5-3.8,8.5-8.5
				v-17.1c0-4.7-3.8-8.5-8.5-8.5h-34.1c-4.7,0-8.5,3.8-8.5,8.5v8.5h-42.7c-4.7,0-8.5,3.8-8.5,8.5v128
				C-600.6,26-598.5,29.2-595.3,30.5z"/>
			<path class="st0" d="M-575,35.4c-4.7,0-8.5,3.8-8.5,8.5v106.7c0,4.7,3.8,8.5,8.5,8.5h256c4.7,0,8.5-3.8,8.5-8.5V43.9
				c0-4.7-3.8-8.5-8.5-8.5s-8.5,3.8-8.5,8.5v98.1H-447V31.1c0-4.7-3.8-8.5-8.5-8.5h-68.3c-4.7,0-8.5,3.8-8.5,8.5v110.9h-34.1V43.9
				C-566.5,39.2-570.3,35.4-575,35.4z M-515.3,39.7h51.2v42.7h-8.5c-4.7,0-8.5,3.8-8.5,8.5s3.8,8.5,8.5,8.5h8.5v42.7h-51.2V39.7z"/>
			<path class="st0" d="M-225.1,22.6c-18.8,0-34.1,15.3-34.1,34.1v67.6c0,4.7,3.8,8.5,8.5,8.5s8.5-3.8,8.5-8.5V56.7
				c0-9.4,7.7-17.1,17.1-17.1s17.1,7.7,17.1,17.1v128c0,23.6-13.5,35.7-14.6,36.6l-76.8,76.8c-3.3,3.3-3.3,8.7,0,12.1
				c1.7,1.7,3.8,2.5,6,2.5c2.2,0,4.4-0.8,6-2.5l76.3-76.3c0.8-0.7,20.1-17.3,20.1-49.2v-128C-191,37.9-206.3,22.6-225.1,22.6z"/>
			<path class="st0" d="M-250.7,329.8h-110.9v-68.3c0-23.3,13.6-35.7,14.6-36.6l59.7-59.7c3.4-3.4,7.6-5.4,11.9-5.5
				c4.3-0.2,8.1,1.4,11.2,4.5c3,3,4.5,6.6,4.5,10.6c0,4.5-2,8.9-5.5,12.5l-42.7,42.7c-3.3,3.3-3.3,8.7,0,12.1
				c3.3,3.3,8.7,3.3,12.1,0l42.7-42.7c6.8-6.8,10.5-15.5,10.5-24.6c0-8.5-3.4-16.5-9.5-22.7c-6.5-6.5-15.1-9.8-24-9.5
				c-8.6,0.4-16.8,4.1-23.3,10.5l-59.3,59.3c-0.8,0.7-20,17.7-20,49.1v68.3h-8.5c-4.7,0-8.5,3.8-8.5,8.5v34.1c0,4.7,3.8,8.5,8.5,8.5
				s8.5-3.8,8.5-8.5v-25.6h119.5v25.6c0,4.7,3.8,8.5,8.5,8.5s8.5-3.8,8.5-8.5v-34.1C-242.2,333.6-246,329.8-250.7,329.8z"/>
			<path class="st0" d="M-506.7,329.8h-8.5v-68.3c0-31.4-19.2-48.4-19.6-48.7l-59.7-59.7c-6.4-6.4-14.7-10.2-23.3-10.5
				c-9.1-0.3-17.5,3-24,9.5c-6.5,6.5-9.8,15-9.5,24c0.3,8.6,4.1,16.9,10.5,23.3l42.7,42.7c3.3,3.3,8.7,3.3,12.1,0s3.3-8.7,0-12.1
				l-42.7-42.7c-3.4-3.4-5.3-7.6-5.5-11.9c-0.2-4.2,1.4-8.1,4.5-11.2c3.1-3.1,7.2-4.7,11.2-4.5c4.3,0.2,8.5,2.1,11.9,5.5l60.1,60.1
				c0.6,0.5,14.2,12.9,14.2,36.3v68.3h-110.9c-4.7,0-8.5,3.8-8.5,8.5v34.1c0,4.7,3.8,8.5,8.5,8.5c4.7,0,8.5-3.8,8.5-8.5v-25.6h119.5
				v25.6c0,4.7,3.8,8.5,8.5,8.5c4.7,0,8.5-3.8,8.5-8.5v-34.1C-498.2,333.6-502,329.8-506.7,329.8z"/>
			<path class="st0" d="M-600.6,312.7c2.2,0,4.4-0.8,6-2.5c3.3-3.3,3.3-8.7,0-12.1l-77.3-77.2c-0.6-0.5-14.1-12.6-14.1-36.2v-128
				c0-9.4,7.7-17.1,17.1-17.1c9.4,0,17.1,7.7,17.1,17.1v67.6c0,4.7,3.8,8.5,8.5,8.5s8.5-3.8,8.5-8.5V56.7
				c0-18.8-15.3-34.1-34.1-34.1c-18.8,0-34.1,15.3-34.1,34.1v128c0,31.9,19.3,48.5,19.6,48.7l76.8,76.8
				C-605,311.9-602.8,312.7-600.6,312.7z"/>
		</g>
	</g>
</g>
</svg>
