<?xml version="1.0" encoding="utf-8"?>
<!-- Generator: Adobe Illustrator 19.0.0, SVG Export Plug-In . SVG Version: 6.00 Build 0)  -->
<svg version="1.1" id="Layer_1" xmlns="http://www.w3.org/2000/svg" xmlns:xlink="http://www.w3.org/1999/xlink" x="0px" y="0px"
	 viewBox="-703 -131 512 512" style="enable-background:new -703 -131 512 512;" xml:space="preserve">
<style type="text/css">
	.st0{fill:#2C2F33;}
</style>
<g>
	<g>
		<path class="st0" d="M-201.2,57.5h-6.8C-214.7,23.7-248.8-35.8-264-61c7.1-4.9,11.7-13,11.7-22.3c0-14.9-12.1-27-27-27
			s-27,12.1-27,27c0,9.2,4.7,17.4,11.8,22.3c-15.1,25.2-49.3,84.7-55.9,118.5h-6.8c-5.6,0-10.2,4.6-10.2,10.2
			c0,48.7,39.6,88.2,88.2,88.2s88.2-39.6,88.2-88.2C-191,62-195.6,57.5-201.2,57.5z M-279.2-89.9c3.7,0,6.6,3,6.6,6.6
			c0,3.7-3,6.6-6.6,6.6s-6.6-3-6.6-6.6C-285.9-86.9-282.9-89.9-279.2-89.9z M-279.3-46.8c17.3,29.1,43.9,77.7,50.5,104.3h-100.9
			C-323.5,32.6-299.5-12.8-279.3-46.8z M-279.2,135.5c-33.9,0-62.1-25.1-67.1-57.6h134.2C-217.1,110.5-245.3,135.5-279.2,135.5z"/>
	</g>
</g>
<g>
	<g>
		<path class="st0" d="M-356.2,301.7h-27v-25.9c0-5.6-4.6-10.2-10.2-10.2h-25.9V-19.3c6.7-6.6,11-15.6,11.5-25.6l43.1-9.3
			c5.5-1.2,9-6.6,7.8-12.1c-1.2-5.5-6.6-9-12.1-7.8l-43.2,9.3c-6.5-12.3-19.4-20.7-34.3-20.7c-20.6,0-37.4,16.1-38.6,36.4
			l-107.8,23.2c-4.9-6.7-12.9-11.1-21.8-11.1c-14.9,0-27,12.1-27,27c0,9.2,4.7,17.4,11.8,22.3c-15.1,25.2-49.3,84.7-55.9,118.5h-6.8
			c-5.6,0-10.2,4.6-10.2,10.2c0,48.7,39.6,88.2,88.2,88.2c48.7,0,88.2-39.6,88.2-88.2c0-5.6-4.6-10.2-10.2-10.2h-6.8
			c-6.7-33.8-40.8-93.3-55.9-118.5c6.1-4.2,10.4-10.8,11.5-18.4l107.1-23.1c1.9,3.7,4.3,7,7.2,9.8v284.9h-25.9
			c-5.6,0-10.2,4.6-10.2,10.2v25.9h-27c-5.6,0-10.2,4.6-10.2,10.2v38.2c0,5.6,4.6,10.2,10.2,10.2h180.5c5.6,0,10.2-4.6,10.2-10.2
			v-38.2C-346,306.2-350.6,301.7-356.2,301.7z M-614.8-16.6c3.7,0,6.6,3,6.6,6.6s-3,6.6-6.6,6.6c-3.7,0-6.6-3-6.6-6.6
			S-618.4-16.6-614.8-16.6z M-614.8,208.8c-33.9,0-62.1-25.1-67.1-57.6h134.2C-552.6,183.7-580.8,208.8-614.8,208.8z M-564.3,130.7
			h-100.9c6.2-24.9,30.2-70.3,50.4-104.3C-597.5,55.6-570.9,104.1-564.3,130.7z M-446.5-65.1c10.1,0,18.3,8.2,18.3,18.3
			s-8.2,18.3-18.3,18.3s-18.3-8.2-18.3-18.3S-456.6-65.1-446.5-65.1z M-439.7-8.7v274.3h-13.6V-8.7c2.2,0.4,4.5,0.6,6.8,0.6
			S-441.9-8.4-439.7-8.7z M-489.4,286h85.8v15.7h-85.8L-489.4,286L-489.4,286z M-366.4,339.9h-160.1v-17.8h160.1V339.9z"/>
	</g>
</g>
<g>
	<g>
		<path class="st0" d="M-317.6-74.1c-1.2-5.5-6.6-9-12.1-7.8l-7.4,1.6c-5.5,1.2-9,6.6-7.8,12.1c1,4.8,5.3,8.1,10,8.1
			c0.7,0,1.4-0.1,2.2-0.2l7.4-1.6C-319.9-63.2-316.4-68.6-317.6-74.1z"/>
	</g>
</g>
</svg>
