<?xml version="1.0" encoding="utf-8"?>
<!-- Generator: Adobe Illustrator 19.0.0, SVG Export Plug-In . SVG Version: 6.00 Build 0)  -->
<svg version="1.1" id="Layer_1" xmlns="http://www.w3.org/2000/svg" xmlns:xlink="http://www.w3.org/1999/xlink" x="0px" y="0px"
	 viewBox="-714 -119.8 489.8 489.8" style="enable-background:new -714 -119.8 489.8 489.8;" xml:space="preserve">
<style type="text/css">
	.st0{fill:#2C2F33;}
	.st1{fill:#29B1FD;}
</style>
<g>
	<g>
		<path class="st0" d="M-234.1-117.5h-470c-5.5,0-9.9,4.4-9.9,9.9s4.4,9.9,9.9,9.9h18.3v287c0,14.5,11.8,26.3,26.3,26.3h382.6
			c14.5,0,26.3-11.8,26.3-26.3v-287h16.5c5.5,0,9.9-4.4,9.9-9.9S-228.6-117.5-234.1-117.5z M-270.4,189.3c0,3.6-2.9,6.5-6.5,6.5
			h-382.6c-3.6,0-6.5-2.9-6.5-6.5v-287h395.6V189.3z"/>
		<path class="st0" d="M-453.5,281v-25.7h34.5c5.5,0,9.9-4.4,9.9-9.9s-4.4-9.9-9.9-9.9h-90.2c-5.5,0-9.9,4.4-9.9,9.9
			s4.4,9.9,9.9,9.9h35.9V281l-69.9,69.9c-3.9,3.9-3.9,10.1,0,14c1.9,1.9,4.5,2.9,7,2.9s5.1-1,7-2.9l55.9-55.9v48.9
			c0,5.5,4.4,9.9,9.9,9.9s9.9-4.4,9.9-9.9V309l55.6,55.6c1.9,1.9,4.5,2.9,7,2.9s5.1-1,7-2.9c3.9-3.9,3.9-10.1,0-14L-453.5,281z"/>
		<path class="st1" d="M-431.7,27.9h75.6c5.5,0,9.9-4.4,9.9-9.9c0-20.9-7.6-41-21.4-56.6c-16.2-18.4-39.6-28.9-64.1-28.9
			c-5.5,0-9.9,4.4-9.9,9.9V18C-441.6,23.5-437.2,27.9-431.7,27.9z M-421.8-46.9c15.1,2.3,29.1,9.8,39.3,21.4
			c8.4,9.5,13.8,21.2,15.7,33.6h-55V-46.9z"/>
		<path class="st0" d="M-474.3,165.5c58.5,0,106.2-47.6,106.2-106.2c0-5.5-4.4-9.9-9.9-9.9h-86.4v-86.3c0-5.5-4.4-9.9-9.9-9.9
			c-58.5,0-106.2,47.6-106.2,106.2C-580.5,117.9-532.9,165.5-474.3,165.5z M-484.3-26.5v85.8c0,5.5,4.4,9.9,9.9,9.9h85.8
			c-4.9,43-41.5,76.5-85.8,76.5c-47.6,0-86.4-38.7-86.4-86.4C-560.7,15.1-527.2-21.5-484.3-26.5z"/>
	</g>
</g>
</svg>
